# xmcd
#
# Track frame offsets: 
#        150
#        16084
#        32998
#        49254
#        62958
#        79720
#        92166
#        109806
#        121806
#        130449
#        140479
#        154839
#        169399
#        184421
#        207057
#
# Disc length: 3010 seconds
#
# Revision: 1
# Processed by: cddbd v1.5.2PL0 Copyright (c) Steve Scherf et al.
# Submitted via: ExactAudioCopy v0.99pb5
#
DISCID=d60bc00f
DTITLE=Luca Sestak - Lost In Boogie
DYEAR=2010
DGENRE=Blues
TTITLE0=E-Flat Flyer
TTITLE1=My Rock'n Boogie
TTITLE2=Quiet Blues
TTITLE3=The Fives
TTITLE4=Boogie 99
TTITLE5=Go str8 4 it
TTITLE6=Boogie Woogie Stomp
TTITLE7=Sunny Sunday
TTITLE8=Stressed Student's Stride
TTITLE9=Tribute to Jay McShann
TTITLE10=Roberta
TTITLE11=Daydream
TTITLE12=Swanee River Boogie
TTITLE13=How Long Blues
TTITLE14=Silent Night Blues
EXTD=YEAR: 2010
EXTT0=
EXTT1=
EXTT2=
EXTT3=
EXTT4=
EXTT5=
EXTT6=
EXTT7=
EXTT8=
EXTT9=
EXTT10=
EXTT11=
EXTT12=
EXTT13=
EXTT14=
PLAYORDER=
